<svg xmlns="http://www.w3.org/2000/svg" width="1000" height="1000"><path fill="rgba(255,255,255,0)" d="M0 0h1000v1000H0z"/><g fill="#030000"><path d="M692.356 503.643l152.317-.485.038 11.887-152.317.485-.038-11.887"/><path d="M692.356 503.643a5.943 5.943 0 11.038 11.887 5.943 5.943 0 01-.038-11.887zM844.673 503.158a5.943 5.943 0 11.038 11.887 5.943 5.943 0 01-.038-11.887zM641.227 640.179l108.048 107.36-8.379 8.433L632.85 648.61l8.378-8.432"/><path d="M637.019 638.451a5.943 5.943 0 11.038 11.887 5.943 5.943 0 01-.038-11.887zM745.066 745.812a5.943 5.943 0 11.038 11.887 5.943 5.943 0 01-.038-11.887zM508.529 700.57l.485 152.317-11.887.038-.485-152.317 11.887-.038"/><path d="M502.566 694.646a5.943 5.943 0 11.038 11.886 5.943 5.943 0 01-.038-11.886zM503.051 846.963a5.943 5.943 0 11.038 11.886 5.943 5.943 0 01-.038-11.886zM371.993 649.441L264.632 757.49l-8.432-8.379 107.361-108.047 8.432 8.378"/><path d="M367.758 639.309a5.943 5.943 0 11.038 11.886 5.943 5.943 0 01-.038-11.886zM260.397 747.356a5.943 5.943 0 11.038 11.887 5.943 5.943 0 01-.038-11.887zM311.602 516.743l-152.317.485-.038-11.887 152.317-.485.038 11.887"/><path d="M311.564 504.856a5.943 5.943 0 11.038 11.887 5.943 5.943 0 01-.038-11.887zM159.247 505.341a5.943 5.943 0 11.038 11.887 5.943 5.943 0 01-.038-11.887zM362.73 380.207l-108.047-107.36 8.378-8.433L371.11 371.776l-8.379 8.431"/><path d="M366.9 370.048a5.943 5.943 0 11.039 11.887 5.943 5.943 0 01-.038-11.887zM258.853 262.687a5.943 5.943 0 11.038 11.887 5.943 5.943 0 01-.038-11.887zM495.429 319.816l-.485-152.317 11.886-.038.486 152.317-11.887.038"/><path d="M501.353 313.854a5.943 5.943 0 11.038 11.886 5.943 5.943 0 01-.038-11.886zM500.868 161.537a5.943 5.943 0 11.038 11.886 5.943 5.943 0 01-.038-11.886zM631.964 370.945l107.362-108.048 8.432 8.379-107.362 108.047-8.432-8.378"/><path d="M636.161 369.19a5.943 5.943 0 11.038 11.887 5.943 5.943 0 01-.038-11.886zM743.523 261.143a5.943 5.943 0 11.037 11.887 5.943 5.943 0 01-.037-11.887zM154.476 354.468c-2.4 5.435-6.254 8.603-6.254 8.603-3.854 3.169-8.62 3.687-8.62 3.687-4.766.519-9.783-1.695-9.783-1.695-5.782-2.553-9.018-6.728-9.018-6.728-3.235-4.176-3.627-9.51-3.627-9.51-.393-5.335 2.19-11.187 2.19-11.187 1.477-3.345 3.485-5.913 3.485-5.913 2.008-2.569 4.053-3.997 4.053-3.997.988-.729 2.164-.751 2.164-.751 1.175-.023 2.29.47 2.29.47 1.672.738 2.51 2.232 2.51 2.232.84 1.494.194 2.957.194 2.957-.37.836-1.187 1.557-1.187 1.557-3.52 2.692-5.18 6.455-5.18 6.455-1.845 4.18-.089 7.744-.089 7.744 1.757 3.565 6.843 5.81 6.843 5.81 4.11 1.814 7.367.754 7.367.754 3.257-1.06 4.887-4.752 4.887-4.752.861-1.951 1.166-3.773 1.166-3.773.305-1.822.129-4.064.129-4.064-.057-1.19.373-2.166.373-2.166.585-1.324 1.949-1.679 1.949-1.679 1.364-.355 2.827.29 2.827.29 1.184.523 2.053 1.573 2.053 1.573.869 1.05 1.073 2.472 1.073 2.472.455 2.365-.04 5.56-.04 5.56-.494 3.195-1.755 6.051-1.755 6.051zM221.387 198.058c11.85-10.74 21.516-.073 21.516-.073 1.023 1.128 1.53 1.8 1.53 1.8l10.183 13.28c1.626 2.02 1.418 4.06 1.418 4.06-.208 2.038-2.127 3.777-2.127 3.777-1.806 1.636-3.847 1.482-3.847 1.482-2.042-.154-3.458-2.057-3.458-2.057l-.153-.17c.769 3.004-.153 5.843-.153 5.843-.921 2.84-3.46 5.14-3.46 5.14-2.71 2.455-5.882 3.377-5.882 3.377-3.173.923-6.13.211-6.13.211-2.958-.712-5.054-3.026-5.054-3.026-2.915-3.216-3.02-6.564-3.02-6.564-.105-3.348 2.573-7.368 2.573-7.368 2.678-4.02 8.547-9.339 8.547-9.339l2.032-1.84-.609-.786c-2.03-2.58-4.288-2.69-4.288-2.69-2.26-.112-4.855 2.24-4.855 2.24-2.935 2.66-5.362 8.148-5.362 8.148a5.799 5.799 0 01-1.278 1.878c-1.242 1.125-2.774 1.023-2.774 1.023-1.531-.103-2.605-1.288-2.605-1.288-.818-.903-1.078-2.21-1.078-2.21-.259-1.306.251-2.899.251-2.899.958-3.026 3.053-6.158 3.053-6.158 2.095-3.132 5.03-5.791 5.03-5.791zm18.5 25.065c2.314-2.096 2.357-5.167 2.357-5.167.043-3.072-2.135-5.929-2.135-5.929l-.813-1.01-1.523 1.38c-4.346 3.938-5.382 6.368-5.382 6.368-1.036 2.429.856 4.517.856 4.517 1.33 1.467 3.138 1.421 3.138 1.421 1.809-.045 3.502-1.58 3.502-1.58zM380.97 108.328c1.979-.81 3.517-.033 3.517-.033 1.538.778 2.033 3.02 2.033 3.02.591 2.531-.27 4.057-.27 4.057-.862 1.525-3.734 2.789-3.734 2.789l-1.882.859c-4.247 1.956-5.486 4.407-5.486 4.407-1.24 2.451-.294 6.55-.294 6.55l3.454 14.176c.614 2.604-.586 4.44-.586 4.44-1.2 1.838-3.515 2.598-3.515 2.598-2.388.785-4.3-.03-4.3-.03-1.91-.816-2.525-3.42-2.525-3.42l-6.623-27.243c-.568-2.46.705-4.32.705-4.32 1.273-1.861 3.516-2.598 3.516-2.598 2.17-.713 3.889.126 3.889.126 1.718.838 2.31 3.129 2.31 3.129l.213.892c1.122-3.174 3.48-5.512 3.48-5.512 2.358-2.338 5.326-3.553 5.326-3.553l.772-.334zM560.397 112.634c-.17 1.667-1.171 2.483-1.171 2.483-1.002.817-2.517.662-2.517.662l-21.14-2.153c-.182 8.555 8.455 9.435 8.455 9.435 2.425.247 4.297-.098 4.297-.098 1.873-.345 4.186-1.258 4.186-1.258 1.115-.422 2.1-.322 2.1-.322 1.44.147 2.195 1.372 2.195 1.372.755 1.226.593 2.817.593 2.817-.131 1.288-.82 2.404-.82 2.404-.687 1.117-1.976 1.75-1.976 1.75-2.185 1.156-5.528 1.658-5.528 1.658-3.343.501-6.752.154-6.752.154-5.834-.595-9.997-3.315-9.997-3.315-4.163-2.721-6.167-7.097-6.167-7.097-2.004-4.377-1.448-9.832-1.448-9.832.602-5.91 3.501-10.322 3.501-10.322 2.9-4.413 7.447-6.59 7.447-6.59 4.547-2.179 10.002-1.623 10.002-1.623 7.956.81 11.788 6.024 11.788 6.024 3.832 5.213 2.952 13.85 2.952 13.85zm-15.164-11.956c-6.743-.688-8.857 7.288-8.857 7.288l14.699 1.498c.401-3.94-1.091-6.197-1.091-6.197-1.493-2.258-4.75-2.59-4.75-2.59zM722.716 144.87c-2.822-1.353-4.944-.638-4.944-.638-2.122.715-3.9 3.207-3.9 3.207l-.71 1.085 4.625 2.65c2.114 1.213 2.608 2.725 2.608 2.725.494 1.512-.453 3.164-.453 3.164-2.272 3.964-6.963 1.275-6.963 1.275l-4.691-2.688-13.468 19.669c-1.523 2.199-3.692 2.536-3.692 2.536-2.168.338-4.282-.874-4.282-.874-2.18-1.25-2.854-3.216-2.854-3.216-.673-1.965.85-4.164.85-4.164l13.468-19.67-2.577-1.476c-2.114-1.212-2.642-2.743-2.642-2.743-.527-1.531.42-3.183.42-3.183 2.272-3.965 7.03-1.238 7.03-1.238l2.643 1.515c4.202-6.107 10.032-7.55 10.032-7.55 5.83-1.442 12.307 1.655 12.307 1.655l1.793.853c.5.199 1.36.691 1.36.691 4.162 2.386 2.269 5.69 2.269 5.69-2.083 3.634-6.435 1.578-6.435 1.578l-1.794-.852zM846.781 270.924c1.382 1.631 1.118 3.334 1.118 3.334-.264 1.703-2.243 2.868-2.243 2.868-2.225 1.344-3.942.996-3.942.996-1.717-.348-3.807-2.689-3.807-2.689l-1.398-1.525c-3.173-3.435-5.887-3.856-5.887-3.856-2.714-.42-6.32 1.745-6.32 1.745l-12.415 7.665c-2.286 1.39-4.404.816-4.404.816-2.119-.574-3.557-2.541-3.557-2.541-1.484-2.029-1.3-4.098-1.3-4.098.186-2.07 2.472-3.459 2.472-3.459l23.864-14.718c2.163-1.3 4.326-.664 4.326-.664 2.163.635 3.557 2.541 3.557 2.541 1.349 1.844 1.082 3.737 1.082 3.737-.266 1.894-2.262 3.165-2.262 3.165l-.782.478c3.365.086 6.317 1.606 6.317 1.606 2.952 1.521 5.025 3.968 5.025 3.968l.556.631zM898.132 442.9c-1.637.354-2.724-.347-2.724-.347-1.086-.7-1.407-2.19-1.407-2.19l-4.484-20.77c-8.193 2.47-6.361 10.957-6.361 10.957.514 2.383 1.421 4.057 1.421 4.057.907 1.674 2.49 3.592 2.49 3.592.746.93.955 1.897.955 1.897.305 1.415-.627 2.512-.627 2.512-.932 1.097-2.495 1.434-2.495 1.434-1.266.274-2.54-.035-2.54-.035-1.274-.31-2.276-1.34-2.276-1.34-1.774-1.72-3.284-4.745-3.284-4.745-1.51-3.024-2.233-6.374-2.233-6.374-1.238-5.733.064-10.532.064-10.532 1.3-4.8 4.844-8.058 4.844-8.058 3.543-3.259 8.903-4.416 8.903-4.416 5.806-1.253 10.899.14 10.899.14 5.092 1.394 8.569 5.046 8.569 5.046 3.476 3.652 4.633 9.012 4.633 9.012 1.688 7.816-2.086 13.072-2.086 13.072-3.774 5.256-12.26 7.088-12.26 7.088zm6.685-18.117c-1.43-6.625-9.669-6.171-9.669-6.171l3.118 14.442c3.871-.836 5.557-2.953 5.557-2.953 1.685-2.117.994-5.318.994-5.318zM891.254 609.848c-1.64-.343-2.348-1.425-2.348-1.425-.707-1.082-.395-2.572-.395-2.572l4.351-20.798c-8.49-1.076-10.267 7.422-10.267 7.422-.5 2.385-.352 4.283-.352 4.283.148 1.899.814 4.294.814 4.294.303 1.153.1 2.122.1 2.122-.296 1.417-1.594 2.04-1.594 2.04-1.297.623-2.863.296-2.863.296-1.267-.265-2.305-1.066-2.305-1.066-1.039-.801-1.535-2.15-1.535-2.15-.92-2.293-1.07-5.67-1.07-5.67-.149-3.377.553-6.732.553-6.732 1.2-5.74 4.342-9.595 4.342-9.595 3.14-3.856 7.703-5.391 7.703-5.391 4.561-1.536 9.929-.413 9.929-.413 5.814 1.217 9.9 4.561 9.9 4.561 4.085 3.345 5.775 8.095 5.775 8.095 1.691 4.75.568 10.117.568 10.117-1.638 7.827-7.223 11.094-7.223 11.094-5.585 3.266-14.083 1.488-14.083 1.488zm13.475-13.831c1.388-6.635-6.323-9.571-6.323-9.571l-3.025 14.462c3.876.81 6.277-.438 6.277-.438 2.4-1.248 3.071-4.453 3.071-4.453zM828.75 736.346c1.427-1.976 3.11-2.357 3.11-2.357 1.685-.382 3.229.733 3.229.733 3.89 2.807.548 7.44.548 7.44l-8.78 12.165c-1.427 1.976-3.11 2.358-3.11 2.358-1.685.381-3.229-.733-3.229-.733-3.89-2.808-.503-7.502-.503-7.502l8.735-12.104zM695.28 838.46c2.172-1.264 4.21-.863 4.21-.863 2.04.4 3.182 2.819 3.182 2.819l19.016 39.511c1.142 2.42.35 4.466.35 4.466-.792 2.046-2.964 3.31-2.964 3.31-2.107 1.225-4.146.825-4.146.825-2.039-.4-3.181-2.819-3.181-2.819l-19.016-39.512c-1.142-2.419-.35-4.465-.35-4.465.792-2.047 2.898-3.272 2.898-3.272zM527.494 911.21c-.18-1.665.63-2.672.63-2.672.81-1.007 2.324-1.171 2.324-1.171l21.125-2.289c-1.6-8.406-10.232-7.471-10.232-7.471-2.423.262-4.183.99-4.183.99-1.76.726-3.832 2.1-3.832 2.1-1.003.645-1.987.751-1.987.751-1.439.156-2.432-.885-2.432-.885-.994-1.042-1.166-2.632-1.166-2.632-.14-1.287.301-2.522.301-2.522.44-1.235 1.57-2.124 1.57-2.124 1.897-1.584 5.062-2.77 5.062-2.77 3.166-1.185 6.573-1.554 6.573-1.554 5.83-.632 10.468 1.164 10.468 1.164 4.637 1.796 7.507 5.66 7.507 5.66 2.87 3.864 3.46 9.315 3.46 9.315.64 5.906-1.278 10.825-1.278 10.825-1.918 4.92-5.913 7.995-5.913 7.995-3.995 3.076-9.447 3.666-9.447 3.666-7.95.861-12.783-3.441-12.783-3.441-4.832-4.303-5.767-12.934-5.767-12.934zm17.318 8.543c6.74-.73 7.149-8.971 7.149-8.971l-14.69 1.59c.427 3.938 2.357 5.836 2.357 5.836 1.929 1.897 5.184 1.545 5.184 1.545zM371.958 909.26c-15.226-4.893-10.822-18.597-10.822-18.597.466-1.45.795-2.224.795-2.224l6.408-15.46c.938-2.418 2.807-3.257 2.807-3.257 1.87-.84 4.335-.047 4.335-.047 2.32.746 3.207 2.59 3.207 2.59.887 1.846-.053 4.023-.053 4.023l-.07.218c2.217-2.167 5.136-2.789 5.136-2.789 2.92-.622 6.183.427 6.183.427 3.48 1.119 5.865 3.405 5.865 3.405 2.385 2.287 3.247 5.204 3.247 5.204.863 2.917-.093 5.89-.093 5.89-1.328 4.132-4.175 5.897-4.175 5.897-2.847 1.765-7.667 1.455-7.667 1.455-4.82-.309-12.361-2.732-12.361-2.732l-2.61-.84-.376.92c-1.22 3.048-.186 5.06-.186 5.06 1.033 2.012 4.368 3.084 4.368 3.084 3.77 1.211 9.737.57 9.737.57a5.798 5.798 0 012.265.167c1.596.513 2.273 1.89 2.273 1.89.677 1.378.188 2.9.188 2.9-.373 1.161-1.375 2.039-1.375 2.039-1.002.878-2.636 1.233-2.636 1.233-3.1.683-6.86.435-6.86.435-3.76-.249-7.53-1.46-7.53-1.46zm12.457-28.554c-2.973-.956-5.654.543-5.654.543-2.681 1.498-4.067 4.812-4.067 4.812l-.468 1.21 1.957.629c5.583 1.794 8.205 1.477 8.205 1.477 2.622-.317 3.484-3 3.484-3 .606-1.885-.338-3.429-.338-3.429-.944-1.543-3.119-2.242-3.119-2.242zM214.458 815.922c-1.691-1.309-1.787-3.03-1.787-3.03-.096-1.72 1.598-3.27 1.598-3.27 1.897-1.778 3.649-1.794 3.649-1.794 1.752-.017 4.282 1.838 4.282 1.838l1.685 1.201c3.818 2.7 6.56 2.548 6.56 2.548 2.742-.153 5.819-3.02 5.819-3.02l10.55-10.08c1.948-1.834 4.139-1.713 4.139-1.713 2.19.12 4.007 1.746 4.007 1.746 1.873 1.675 2.123 3.738 2.123 3.738.25 2.063-1.698 3.897-1.698 3.897l-20.282 19.358c-1.846 1.72-4.094 1.549-4.094 1.549-2.248-.172-4.008-1.746-4.008-1.746-1.702-1.523-1.835-3.43-1.835-3.43-.133-1.908 1.554-3.566 1.554-3.566l.666-.63c-3.31.615-6.513-.258-6.513-.258-3.204-.874-5.74-2.836-5.74-2.836l-.675-.502zM116.432 676.185c-2.558-5.697-.708-10.034-.708-10.034 1.851-4.338 7.965-7.083 7.965-7.083 1.459-.655 2.254-.93 2.254-.93l16.333-5.83c2.386-.822 4.377.08 4.377.08 1.99.9 3.083 3.332 3.083 3.332 1.092 2.432.364 4.344.364 4.344-.727 1.913-3.113 2.734-3.113 2.734l-15.916 5.645c-3.529 1.25-4.657 3.385-4.657 3.385-1.129 2.135.15 4.983.15 4.983 1.466 3.266 4.358 4.221 4.358 4.221 2.892.956 6.56-.358 6.56-.358l15.12-5.37c2.387-.821 4.378.08 4.378.08 1.99.9 3.051 3.263 3.051 3.263 1.092 2.432.365 4.344.365 4.344-.728 1.913-3.083 2.804-3.083 2.804l-26.402 9.435c-2.216.828-4.254-.177-4.254-.177-2.037-1.006-3.13-3.437-3.13-3.437-.997-2.223-.293-4-.293-4 .705-1.778 2.851-2.575 2.851-2.575l.07-.031c-3.104-.777-5.634-3.064-5.634-3.064-2.53-2.287-4.09-5.76-4.09-5.76zM510.014 594.133c-23.304.074-40.131-10.61-40.131-10.61-16.827-10.686-25.912-29.506-25.912-29.506-9.085-18.82-9.163-43.267-9.163-43.267-.058-18.278 5.833-33.605 5.833-33.605 5.892-15.327 16.365-26.784 16.365-26.784 10.474-11.457 24.277-17.784 24.277-17.784 13.802-6.327 29.567-6.378 29.567-6.378 13.937-.044 22.972 3.011 22.972 3.011 9.034 3.056 13.611 5.326 13.611 5.326l5.491 2.268c2.517 1.134 3.43 1.131 3.43 1.131 2.514-.008 4.107-1.955 4.107-1.955 1.593-1.947 2.035-6.747 2.035-6.747l5.712-.018-.372 26.733.542 26.73-5.712.019c-3.503-23.75-16.567-36.732-16.567-36.732-13.065-12.982-34.542-12.914-34.542-12.914-15.079.048-25.341 6.136-25.341 6.136-10.262 6.087-16.397 16.73-16.397 16.73-6.135 10.645-8.946 24.705-8.946 24.705-2.811 14.06-2.76 30.054-2.76 30.054.076 23.99 5.271 41.109 5.271 41.109 5.195 17.119 16.991 26.335 16.991 26.335 11.796 9.215 31.674 9.152 31.674 9.152 14.85-.047 25.796-6.936 25.796-6.936C548.79 573.446 555.493 562 555.493 562c6.704-11.445 8.031-25.158 8.031-25.158l5.483-.017-.368 27.875.77 26.73-5.483.017-.693-2.511a46.142 46.142 0 00-2.188-5.59c-1.265-2.624-4.235-2.615-4.235-2.615-1.6.005-3.767.926-3.767.926-2.168.92-4.905 2.3-4.905 2.3-5.931 2.99-15.516 6.562-15.516 6.562-9.585 3.571-22.608 3.613-22.608 3.613z"/></g></svg>